<?xml version="1.0" encoding="utf-8"?>
<!-- Generator: Adobe Illustrator 26.0.1, SVG Export Plug-In . SVG Version: 6.00 Build 0)  -->
<svg version="1.1" id="图层_1" xmlns="http://www.w3.org/2000/svg" xmlns:xlink="http://www.w3.org/1999/xlink" x="0px" y="0px"
	 viewBox="0 0 256 256" style="enable-background:new 0 0 256 256;" xml:space="preserve">
<style type="text/css">
	.st0{fill:#FFFFFF;}
	.st1{fill:#E30002;}
</style>
<path class="st0" d="M-18.45,96.5"/>
<rect class="st1" width="256" height="256"/>
<g>
	<polygon class="st0" points="211.27,108.3 169.27,149.3 179.27,207.3 128.27,179.87 76.71,207.3 85.27,150.3 44.73,109.3 
		101.27,101.3 127.5,48.7 153.27,101.3 	"/>
	<path d="M110.85,152c9.53,11.23,20.62,13.57,34,6l9,10l6-6l-9-9c4.77-6.41,6.93-16.55,4-27c-4.22-10.74-10.57-17.33-20-18
		c10.86,11.28,15.08,24.97,8,38l-25-26l10-8.46l-15-3.54l-16,16l9,9l7-7l24,25c-1.9,1.51-3.9,2.49-6,2.95
		c-8.97,1.96-19.6-7.95-20-7.95c-0.32,0.01-13,12-13,12c-2.04,1.69-2.07,3.03-1,4.19l4,2.81c1.57,0.38,2.92-0.18,4-2L110.85,152z"/>
</g>
</svg>
