<?xml version="1.0" encoding="utf-8"?>
<!-- Generator: Adobe Illustrator 26.0.1, SVG Export Plug-In . SVG Version: 6.00 Build 0)  -->
<svg version="1.1" id="most-people" xmlns="http://www.w3.org/2000/svg" xmlns:xlink="http://www.w3.org/1999/xlink" x="0px"
	 y="0px" viewBox="0 0 512 512" style="enable-background:new 0 0 512 512;" xml:space="preserve">
<style type="text/css">
	.st0{fill:#E30002;}
	.st1{fill:#FFFFFF;}
</style>
<g>
	<path class="st0" d="M0,0h512v512H0V0z"/>
	<g>
		<polygon class="st1" points="422.5,216.6 338.5,298.6 358.5,414.6 256.5,359.7 153.4,414.6 170.5,300.6 89.5,218.6 202.5,202.6 
			255,97.4 306.5,202.6 		"/>
		<path d="M221.7,304c19.1,22.5,41.2,27.1,68,12l18,20l12-12l-18-18c9.5-12.8,13.9-33.1,8-54c-8.4-21.5-21.1-34.7-40-36
			c21.7,22.6,30.2,49.9,16,76l-50-52l20-16.9l-30-7.1l-32,32l18,18l14-14l48,50c-3.8,3-7.8,5-12,5.9c-17.9,3.9-39.2-15.9-40-15.9
			c-0.6,0-26,24-26,24c-4.1,3.4-4.1,6.1-2,8.4l8,5.6c3.1,0.8,5.8-0.4,8-4L221.7,304z"/>
	</g>
</g>
</svg>
