<?xml version="1.0" encoding="utf-8"?>
<!-- Generator: Adobe Illustrator 27.0.0, SVG Export Plug-In . SVG Version: 6.00 Build 0)  -->
<svg version="1.1" id="图层_1" xmlns="http://www.w3.org/2000/svg" xmlns:xlink="http://www.w3.org/1999/xlink" x="0px" y="0px"
	 viewBox="0 0 30 32.5" style="enable-background:new 0 0 30 32.5;" xml:space="preserve">
<style type="text/css">
	.st0{fill-rule:evenodd;clip-rule:evenodd;fill:#2BAAFF;}
</style>
<path class="st0" d="M30,15c0,8.3-6.7,15-15,15c-1,0-1.9-0.1-2.8-0.3l-6.3,2.7c-0.6,0.2-1.2-0.1-1.3-0.7l-0.9-6.8
	C1.4,22.2,0,18.8,0,15C0,6.7,6.7,0,15,0S30,6.7,30,15z M17.3,11.4c0.2-0.7-0.2-1.4-0.9-1.5c-0.7-0.2-1.4,0.2-1.5,0.9l-2.1,7.8
	c-0.2,0.7,0.2,1.4,0.9,1.5c0.7,0.2,1.4-0.2,1.5-0.9L17.3,11.4z M5.4,14.1c-0.5,0.5-0.5,1.3,0,1.8l3.7,3.7c0.5,0.5,1.3,0.5,1.8,0
	s0.5-1.3,0-1.8L8,15l2.9-2.9c0.5-0.5,0.5-1.3,0-1.8s-1.3-0.5-1.8,0L5.4,14.1z M24.6,15.9c0.5-0.5,0.5-1.3,0-1.8l-3.7-3.7
	c-0.5-0.5-1.3-0.5-1.8,0s-0.5,1.3,0,1.8L22,15l-2.9,2.9c-0.5,0.5-0.5,1.3,0,1.8s1.3,0.5,1.8,0L24.6,15.9z"/>
</svg>
