<?xml version="1.0" standalone="no"?><!DOCTYPE svg PUBLIC "-//W3C//DTD SVG 1.1//EN" "http://www.w3.org/Graphics/SVG/1.1/DTD/svg11.dtd"><svg t="1682531692299" class="icon" viewBox="0 0 1024 1024" version="1.1" xmlns="http://www.w3.org/2000/svg" p-id="3756" xmlns:xlink="http://www.w3.org/1999/xlink" width="200" height="200"><path d="M904.96 436.26666667c-78.72 0-151.68-24.85333333-211.30666667-67.09333334v303.78666667c0 154.98666667-125.76 280.74666667-280.96 280.74666667-155.2 0-280.96-125.65333333-280.96-280.74666667 0-154.98666667 125.76-280.74666667 280.96-280.74666667 15.46666667 0 30.50666667 1.28 45.22666667 3.62666667V556.8c-14.08-5.33333333-29.01333333-8-44.16-8-69.22666667 0-125.44 56.10666667-125.44 125.22666667 0 69.22666667 56.10666667 125.22666667 125.44 125.22666666 69.22666667 0 125.44-56.10666667 125.44-125.22666666V70.93333333h156.8c0 115.94666667 94.08 209.92 210.13333333 209.92V436.26666667h-1.17333333z m0 0" fill="#000000" p-id="3757"></path></svg>