<?xml version="1.0" encoding="utf-8"?>
<!-- Generator: Adobe Illustrator 27.0.0, SVG Export Plug-In . SVG Version: 6.00 Build 0)  -->
<svg version="1.1" id="图层_1" xmlns="http://www.w3.org/2000/svg" xmlns:xlink="http://www.w3.org/1999/xlink" x="0px" y="0px"
	 viewBox="0 0 286.7 200" style="enable-background:new 0 0 286.7 200;" xml:space="preserve">
<style type="text/css">
	.st0{fill:#C1E1C4;}
	.st1{fill:#FBDEB5;}
	.st2{fill:#F5E455;}
	.st3{fill:#FFFFFF;}
	.st4{fill:#F4D5E6;}
	.st5{fill:#F3A8BC;}
	.st6{fill:#952D2E;}
</style>
<g>
	<path class="st0" d="M279.9,196.4c-0.5-2.1-0.9-4.2-1-6.3c-1.7-8.8-12.8-13-13-21.9c-0.1-3.1,1.2-6.2,0.6-9.2
		c-1.2-5.6-8-6.7-11.5-11c-3.5-4.3-3.4-10.9-6.5-15.4s-8.8-5.8-13.4-8.4c-5.4-3.4-9.5-8.6-11.4-14.8l-39.4-14.6l-15-15.3l-48.8,10.6
		L117.1,196L279.9,196.4L279.9,196.4z"/>
	<path class="st1" d="M120.5,37.4V26h-14.9v11.4H90.7V26H75.8v11.4H60.9V26H46v11.4H31.1V26H16.2v35.9h0.1v135.7h104.2l0-120
		L120.5,37.4L120.5,37.4L120.5,37.4z"/>
	<path class="st2" d="M52.9,197.6v-27.3c-0.1-8.6,6.8-15.7,15.4-15.8c8.6,0.1,15.5,7.2,15.4,15.8v27.3"/>
	<path class="st3" d="M70.3,154.8c-1,4.4-3.3,8.3-6.7,11.3c-3.1,2.7-7.2,4-11.3,3.7l6.2-12.1L70.3,154.8z M2.2,185.3
		c9.1-3.1,5.4-5.5,12.3-12.6c1.2-1.1,2.2-2.5,2.9-3.9c1.7-4.1,0-9.1,1-13.5c1.4-6.7,8.3-10.4,10.2-17c1.7-5.9-1-12.2-3.5-17.7
		c-3.2-7.1-6.4-15.2-4.5-22.8c1.7-6.9,7-12.3,7.4-19.4c0.4-6.4-3.4-12.3-3.9-18.7c-0.3-4.4,1-8.8,1.4-13.2C27,30.2,16.4,14,20.6,0
		L2.2,185.3z"/>
	<path class="st4" d="M138.7,169.7L123,180.4l-1,16.2l10.5-10.2l22.3-13.8l22.1-3.2l16.7,1.7l18.7,1.1l17.7-3.1l11.9-4.2l14.3-9.5
		l4.8-2.9l6.5-2l-3.9-8.4l-5,1.2l-2,0.1l-14.2,9l-5.7-13.6l-12.7,6.3l2.9,14.9l-15.2,3l-1-15l-15.1-0.5l-0.9,14.5l-14.2-1.3
		l-1.8-13.7l-14.3,0.8l1.2,13.6l-14.8,3.6l-1.1-9.3l-16,4.9l2.9,9.2l0.1,0 M137.1,71.7L122,76.5l-0.2,11.8l0.1,3.4l18.9-7.4
		l14.7,2.2l10.7,7l11.5,9.9l12.8,6.5l15.4,2.3l11.4-0.6l6.2-2.2V97.4l-15.8,3.3l1.5-13l-12.1-2.9l-5.2,12.1l-13.7-9.1l6-13.8
		l-12.6-7.1l-7.7,10.7l-12.1-4l1.1-11.1l-14-1.6L137.1,71.7"/>
	<path class="st5" d="M29.5,102V91c0-5.7,4.2-10.5,9.4-10.5c5.2,0,9.4,4.7,9.4,10.5v11H37.1 M59.1,102V91c0-5.7,4.2-10.5,9.4-10.5
		c5.2,0,9.4,4.7,9.4,10.5v11H66.8 M88.8,102V91c0-5.7,4.2-10.5,9.4-10.5c5.2,0,9.4,4.7,9.4,10.5v11H96.5"/>
	<path class="st6" d="M30.9,64.9H10.8c-1.3-0.1-2.3-1.3-2.2-2.6c0.1-1.2,1-2.1,2.2-2.2h20.1c1.3-0.1,2.5,0.9,2.6,2.2
		c0.1,1.3-0.9,2.5-2.2,2.6C31.2,64.9,31,64.9,30.9,64.9z M119.7,64.9H41.1c-1.3,0.1-2.5-0.9-2.6-2.2c-0.1-1.3,0.9-2.5,2.2-2.6
		c0.1,0,0.3,0,0.4,0h78.6c1.3-0.1,2.5,0.9,2.6,2.2s-0.9,2.5-2.2,2.6C120,64.9,119.8,64.9,119.7,64.9z M48.2,104.4H37.1
		c-1.3,0.1-2.5-0.9-2.6-2.2c-0.1-1.3,0.9-2.5,2.2-2.6c0.1,0,0.3,0,0.4,0h8.7V91c0-4.5-3.1-8.1-7-8.1s-7,3.6-7,8.1v11
		c-0.1,1.3-1.3,2.3-2.6,2.2c-1.2-0.1-2.1-1-2.2-2.2V91c0-7.1,5.3-12.8,11.8-12.8S50.6,84,50.6,91v11
		C50.6,103.3,49.5,104.4,48.2,104.4z M77.9,104.4H66.8c-1.3,0.1-2.5-0.9-2.6-2.2c-0.1-1.3,0.9-2.5,2.2-2.6c0.1,0,0.3,0,0.4,0h8.7V91
		c0-4.5-3.1-8.1-7-8.1s-7,3.6-7,8.1v11c0,1.3-1.1,2.4-2.4,2.4c-1.3,0-2.4-1.1-2.4-2.4V91c0-7.1,5.3-12.8,11.8-12.8S80.4,84,80.4,91
		v11C80.3,103.3,79.3,104.4,77.9,104.4C77.9,104.4,77.9,104.4,77.9,104.4L77.9,104.4z M83.8,200c-1.3,0-2.4-1.1-2.4-2.4v-27.3
		c0-7.2-5.8-13-13-13s-13,5.8-13,13v27.3c0,1.3-1.1,2.4-2.4,2.4c-1.3,0-2.4-1.1-2.4-2.4v-27.3c0-9.9,8-17.8,17.8-17.8
		s17.8,8,17.8,17.8v27.3C86.2,198.9,85.2,200,83.8,200C83.8,200,83.8,200,83.8,200z M107.6,104.4H96.5c-1.3-0.1-2.3-1.3-2.2-2.6
		c0.1-1.2,1-2.1,2.2-2.2h8.7V91c0-4.5-3.1-8.1-7-8.1c-3.8,0-7,3.6-7,8.1v11c0,1.3-1.1,2.4-2.4,2.4s-2.4-1.1-2.4-2.4V91
		c0-7.1,5.3-12.8,11.8-12.8S110,84,110,91v11C110,103.3,109,104.4,107.6,104.4C107.6,104.4,107.6,104.4,107.6,104.4z M120.6,137
		H78.6c-1.3,0.1-2.5-0.9-2.6-2.2s0.9-2.5,2.2-2.6c0.1,0,0.3,0,0.4,0h41.9c1.3-0.1,2.5,0.9,2.6,2.2c0.1,1.3-0.9,2.5-2.2,2.6
		C120.8,137,120.7,137,120.6,137L120.6,137z M68.1,137h-8.4c-1.3,0.1-2.5-0.9-2.6-2.2c-0.1-1.3,0.9-2.5,2.2-2.6c0.1,0,0.3,0,0.4,0
		h8.4c1.3,0.1,2.3,1.3,2.2,2.6C70.2,136,69.3,136.9,68.1,137z M120.6,153.1H92.5c-1.3,0-2.4-1.1-2.4-2.4c0-1.3,1.1-2.4,2.4-2.4h28.1
		c1.3,0,2.4,1.1,2.4,2.4C123,152.1,121.9,153.1,120.6,153.1z M32.9,169.1H18.4c-1.3,0.1-2.5-0.9-2.6-2.2c-0.1-1.3,0.9-2.5,2.2-2.6
		c0.1,0,0.3,0,0.4,0h14.5c1.3-0.1,2.5,0.9,2.6,2.2c0.1,1.3-0.9,2.5-2.2,2.6C33.2,169.1,33.1,169.1,32.9,169.1z"/>
	<path class="st6" d="M102.3,152.1c-1.3,0-2.4-1.1-2.4-2.4c0,0,0,0,0,0v-14c-0.1-1.3,0.9-2.5,2.2-2.6c1.3-0.1,2.5,0.9,2.6,2.2
		c0,0.1,0,0.3,0,0.4v14C104.7,151,103.6,152.1,102.3,152.1C102.3,152.1,102.3,152.1,102.3,152.1L102.3,152.1z M93.3,135.2
		c-1.3,0-2.4-1.1-2.4-2.4l0,0v-10.1c0-1.3,1.1-2.4,2.4-2.4s2.4,1.1,2.4,2.4v10.1C95.7,134.2,94.6,135.2,93.3,135.2
		C93.3,135.2,93.3,135.2,93.3,135.2L93.3,135.2z M111.4,135.2c-1.3,0-2.4-1.1-2.4-2.4c0,0,0,0,0,0v-17.9c0-1.3,1.1-2.4,2.4-2.4
		c1.3,0,2.4,1.1,2.4,2.4v17.9C113.8,134.2,112.7,135.2,111.4,135.2C111.4,135.2,111.4,135.2,111.4,135.2L111.4,135.2z M140.5,113.3
		c-1.3,0-2.4-1.1-2.4-2.4c0,0,0,0,0,0v-10.3c-0.1-1.3,0.9-2.5,2.2-2.6c1.3-0.1,2.5,0.9,2.6,2.2c0,0.1,0,0.3,0,0.4v10.3
		C142.9,112.2,141.8,113.3,140.5,113.3L140.5,113.3z M151.7,113.3c-1.3,0-2.4-1.1-2.4-2.4c0,0,0,0,0,0v-10.3
		c-0.1-1.3,0.9-2.5,2.2-2.6c1.3-0.1,2.5,0.9,2.6,2.2c0,0.1,0,0.3,0,0.4v10.3C154.1,112.2,153,113.3,151.7,113.3L151.7,113.3z
		 M165.2,199.3c-1.2,0-2.2-0.9-2.4-2.1l-1-10c-0.1-1.3,0.8-2.5,2.1-2.6c1.3-0.1,2.5,0.8,2.6,2.1l0,0l1.1,10c0.1,1.3-0.8,2.5-2.1,2.6
		L165.2,199.3z M176.5,198.9c-1.2,0-2.3-0.9-2.4-2.1l-1.1-10.9c-0.1-1.3,0.8-2.5,2.1-2.6c1.3-0.1,2.5,0.8,2.6,2.1l1.2,11
		c0.1,1.3-0.8,2.5-2.1,2.6L176.5,198.9z M180.8,131.7c-0.2,0-0.5,0-0.7-0.1c-1.2-0.4-2-1.7-1.6-2.9c0,0,0,0,0,0l3.1-9.9
		c0.4-1.3,1.7-2,3-1.6c0,0,0,0,0,0c1.3,0.4,2,1.7,1.6,3l-3.1,9.9C182.8,131,181.9,131.7,180.8,131.7L180.8,131.7z M191.8,134.9
		c-0.2,0-0.5,0-0.7-0.1c-1.3-0.4-2-1.7-1.6-3l3.1-9.9c0.3-1.3,1.6-2,2.9-1.7s2,1.6,1.7,2.9c0,0.1,0,0.1-0.1,0.2l-3.1,9.9
		C193.7,134.2,192.8,134.9,191.8,134.9L191.8,134.9z M241.9,189c-1,0-1.9-0.6-2.2-1.5l-3.4-8.8c-0.3-1.3,0.4-2.6,1.7-2.9
		c1.1-0.3,2.2,0.2,2.7,1.2l3.4,8.8c0.4,1.2-0.2,2.5-1.4,3C242.5,189,242.2,189,241.9,189L241.9,189z M252.7,185.5
		c-1,0-1.9-0.6-2.2-1.5l-3.4-8.8c-0.3-1.3,0.4-2.6,1.7-2.9c1.1-0.3,2.2,0.2,2.7,1.2l3.4,8.8c0.5,1.2-0.1,2.6-1.3,3.1c0,0,0,0,0,0
		C253.3,185.4,253,185.5,252.7,185.5L252.7,185.5z"/>
	<path class="st3" d="M120.1,52.5h9.5v145.7h-9.5V52.5z"/>
	<path class="st6" d="M120.5,200H16.3c-1.3,0-2.4-1.1-2.4-2.4l0,0V62.5c-0.1-0.2-0.1-0.4-0.1-0.7V26c0-1.3,1.1-2.4,2.4-2.4h14.9
		c1.3,0,2.4,1.1,2.4,2.4v9h10.1v-9c0-1.3,1.1-2.4,2.4-2.4h14.9c1.3,0,2.4,1.1,2.4,2.4v9h10.1v-9c0-1.3,1.1-2.4,2.4-2.4
		c0,0,0.1,0,0.1,0h14.9c1.3,0,2.4,1,2.4,2.4c0,0,0,0,0,0v9h10.1v-9c0-1.3,1-2.3,2.3-2.4h14.9c1.3,0,2.4,1.1,2.4,2.4v10.8
		c0,0.2,0,0.4,0,0.6v160.2C122.9,198.9,121.9,200,120.5,200C120.5,200,120.5,200,120.5,200z M18.7,195.2h99.5V38c0-0.2,0-0.4,0-0.6
		v-9h-10.2v9c0,1.3-1.1,2.4-2.4,2.4H90.7c-1.3,0-2.4-1.1-2.4-2.4v-9H78.2v9c0,1.3-1,2.3-2.3,2.4h-15c-1.3,0-2.4-1-2.4-2.4
		c0,0,0,0,0,0v-9H48.4v9c0,1.3-1.1,2.4-2.4,2.4H31.1c-1.3,0-2.4-1.1-2.4-2.4c0,0,0,0,0,0v-9H18.5v32.8c0.1,0.2,0.1,0.4,0.1,0.7
		L18.7,195.2z M206.7,115.5c-8.7,0-17.2-2.3-24.8-6.6c-4.7-2.9-9.1-6.3-13-10.3c-5.5-5.2-10.8-10.1-18.4-11.7
		c-7-1.6-14.3-0.7-20.8,2.5c-1.1,0.7-2.6,0.3-3.3-0.9c-0.7-1.1-0.3-2.6,0.9-3.3c0.1-0.1,0.2-0.1,0.3-0.2c7.4-3.6,15.8-4.6,23.8-2.8
		c8.9,1.9,14.9,7.5,20.7,12.9c3.6,3.7,7.7,6.9,12.1,9.6c11.3,6.5,24.8,7.7,37.1,3.4c1.2-0.5,2.6,0.2,3.1,1.4
		c0.5,1.2-0.2,2.6-1.4,3.1C217.8,114.5,212.3,115.5,206.7,115.5L206.7,115.5z"/>
	<path class="st6" d="M207.7,103c-0.6,0-1.2-0.2-1.7-0.6c-0.6-0.5-0.8-1.3-0.8-2l1.2-10.9l-8.1-1.9l-4.4,10.2
		c-0.5,1.2-1.9,1.8-3.1,1.2c-0.1-0.1-0.3-0.1-0.4-0.2l-13.7-9.1c-1-0.6-1.3-1.9-0.9-2.9l5.1-11.8l-8.8-5.1l-6.4,9
		c-0.6,0.8-1.7,1.2-2.7,0.9l-12.1-4.1c-1.1-0.3-1.8-1.4-1.7-2.5l0.9-8.8l-9.4-1.1l-1.5,8.8c0.1,1.3-0.9,2.4-2.3,2.5
		c-1.3,0.1-2.4-0.9-2.5-2.3c0-0.4,0-0.7,0.2-1l1.7-11c0.2-1.2,1.4-2.1,2.6-2l14,1.6c1.3,0.1,2.2,1.3,2.1,2.6l-0.9,9.2l8.6,2.9
		l6.7-9.3c0.7-1,2.1-1.3,3.1-0.7l12.6,7.1c1.1,0.6,1.5,1.9,1,3l-5.2,12l9.7,6.4l4.1-9.4c0.5-1.1,1.6-1.6,2.7-1.4l12.1,2.9
		c1.2,0.3,1.9,1.4,1.8,2.6l-1.1,9.7l12.6-2.6c1.3-0.4,2.6,0.3,3,1.6c0.4,1.3-0.3,2.6-1.6,3c-0.1,0-0.3,0.1-0.4,0.1l-15.8,3.4
		L207.7,103z"/>
	<path class="st6" d="M128.8,76.8c-1.3,0-2.4-1.1-2.4-2.4c0-1,0.7-1.9,1.7-2.3l8.4-2.6c1.3-0.4,2.6,0.3,3,1.6c0.4,1.3-0.3,2.6-1.6,3
		l-8.4,2.6C129.2,76.7,129,76.8,128.8,76.8z M284.3,200H2.4c-1.3,0-2.4-1.1-2.4-2.4c0-1.3,1.1-2.4,2.4-2.4h282
		c1.3,0,2.4,1.1,2.4,2.4C286.7,198.9,285.7,200,284.3,200L284.3,200z M128.8,190.1c-0.7,0-1.3-0.3-1.8-0.8c-0.9-1-0.8-2.5,0.2-3.4
		c7.4-6.5,21.1-12.8,33.5-15.3c11.5-2.3,21.9-1.3,32-0.3c10.3,1,20.1,2,30.9-0.4c14.8-3.2,19.4-6.7,24.8-10.9
		c5.6-4.6,12-8.2,18.8-10.6c1.2-0.6,2.6,0,3.2,1.2c0.6,1.2,0,2.6-1.2,3.2c-0.1,0-0.2,0.1-0.3,0.1c-6.4,2.3-12.4,5.7-17.7,10
		c-5.6,4.3-10.8,8.4-26.7,11.8c-11.5,2.5-22.1,1.5-32.4,0.4c-9.7-1-19.8-1.9-30.6,0.2c-11.6,2.3-24.5,8.2-31.3,14.2
		C129.9,189.9,129.3,190.1,128.8,190.1L128.8,190.1z"/>
	<path class="st6" d="M138.2,171.6c-0.9,0-1.8-0.6-2.2-1.4l-4.4-10c-0.5-1.2,0.1-2.6,1.3-3.1c0.1,0,0.2-0.1,0.3-0.1l16-4.9
		c0.6-0.2,1.3-0.1,1.9,0.2c0.6,0.3,1,0.9,1.1,1.5l2.1,7.9l10.6-2.6l-0.1-10.1c0-1.3,0.9-2.3,2.2-2.5l14.3-0.8
		c1.3-0.1,2.4,0.8,2.6,2.1c0,0,0,0.1,0,0.1l0.6,10.1l9.9,0.9l1.4-9.7c0.2-1.2,1.2-2.1,2.4-2l15.2,0.5c1.3,0,2.3,1.1,2.3,2.4l0.2,9.6
		l9.8-2l-2.7-9.5c-0.3-1.1,0.2-2.3,1.2-2.8l12.7-6.3c1.1-0.6,2.5-0.1,3.1,0.9l4.7,8.1c4-3.5,12.1-10.1,17.4-10.6
		c1.3-0.1,2.5,0.9,2.6,2.2c0.1,1.3-0.8,2.4-2,2.6c-3.9,0.4-12.4,7.2-16.9,11.4c-0.5,0.5-1.3,0.7-2,0.6c-0.7-0.1-1.3-0.5-1.7-1.2
		l-5.1-8.7l-8.9,4.4l2.8,10.1c0.2,0.6,0.1,1.3-0.3,1.9c-0.3,0.6-0.9,1-1.6,1.1l-15.2,3c-0.7,0.1-1.4,0-2-0.5
		c-0.6-0.4-0.9-1.1-0.9-1.8l-0.2-10.1l-10.7-0.4l-1.6,9.8c-0.2,1.3-1.3,2.2-2.6,2l-14.2-1.3c-1.2-0.1-2.1-1.1-2.2-2.2l-0.6-9.8
		l-9.6,0.6l0.1,9.8c0,1.1-0.7,2.1-1.8,2.3l-14.8,3.6c-1.3,0.3-2.5-0.4-2.9-1.7l-2-7.7l-11,3.4l3.2,7.1c0.2,0.2,0.3,0.5,0.4,0.8
		c0.4,1.2-0.3,2.5-1.6,2.9c0,0-0.1,0-0.1,0h-0.1C138.6,171.6,138.4,171.6,138.2,171.6L138.2,171.6z"/>
	<path class="st6" d="M128.8,176.8c-1.3,0-2.4-1.1-2.4-2.4c0-0.9,0.5-1.7,1.2-2.1l9.5-5.2c1.1-0.7,2.6-0.4,3.3,0.7
		c0.7,1.1,0.4,2.6-0.7,3.3c-0.1,0.1-0.2,0.1-0.3,0.2l-9.6,5.2C129.5,176.7,129.1,176.8,128.8,176.8L128.8,176.8z"/>
</g>
</svg>
