<?xml version="1.0" encoding="utf-8"?>
<!-- Generator: Adobe Illustrator 27.0.0, SVG Export Plug-In . SVG Version: 6.00 Build 0)  -->
<svg version="1.1" id="图层_1" xmlns="http://www.w3.org/2000/svg" xmlns:xlink="http://www.w3.org/1999/xlink" x="0px" y="0px"
	 viewBox="0 0 200 200" style="enable-background:new 0 0 200 200;" xml:space="preserve">
<style type="text/css">
	.st0{fill:#24292E;}
</style>
<path class="st0" d="M200,102.4c0.2,21.2-6.5,41.8-19.1,58.8c-12.1,17-29.4,29.6-49.2,36.1c-1.8,0.5-3.7,0.2-5.1-0.9
	c-1.1-1-1.6-2.5-1.6-3.9v-27.4c0.6-6.9-1.9-13.6-6.8-18.5c4.5-0.4,8.9-1.2,13.3-2.3c4.3-1.1,8.4-2.9,12.2-5.1
	c4-2.2,7.6-5.1,10.5-8.6c3.2-4.1,5.7-8.7,7.1-13.7c1.9-6.4,2.8-13,2.7-19.6c0.2-9.9-3.5-19.6-10.4-26.8c3.2-8.6,2.9-18.2-1-26.6
	c-3.6-0.6-7.2-0.1-10.5,1.4c-4.2,1.5-8.2,3.4-12,5.7l-4.9,3.1c-16.4-4.6-33.6-4.6-50,0c-1.4-1-3.2-2.1-5.5-3.5
	c-3.6-2.1-7.3-3.8-11.1-5.3c-3.5-1.8-7.4-2.4-11.2-1.8c-3.9,8.5-4.2,18.1-0.9,26.8c-6.8,7.3-10.4,17-10.3,26.9
	c-0.1,6.6,0.8,13.2,2.7,19.5c1.5,5,4,9.6,7.1,13.7c2.9,3.6,6.4,6.6,10.5,8.7c3.9,2.2,8,3.9,12.2,5.1c4.4,1.1,8.9,1.9,13.4,2.3
	c-3.7,3.5-6,8.3-6.4,13.4c-1.9,0.9-3.9,1.5-5.9,1.9c-2.4,0.4-4.7,0.7-7.1,0.6c-3.3,0-6.5-1-9.1-2.9c-3-2.1-5.4-4.9-7.1-8.1
	c-1.6-2.7-3.7-5-6.3-6.8c-1.9-1.5-4.1-2.5-6.4-3.1H31c-1.3-0.1-2.6,0.1-3.8,0.6c-0.7,0.4-0.9,0.9-0.6,1.5c0.3,0.6,0.7,1.2,1.2,1.8
	c0.5,0.6,1.1,1.2,1.7,1.6l0.9,0.6c2.2,1.2,4.2,2.9,5.7,4.9c1.6,2,3,4.2,4.1,6.6l1.3,3c1,3.2,3,6,5.7,8.1c2.6,1.9,5.5,3.1,8.6,3.7
	c3,0.6,6,0.9,9,0.9c2.4,0,4.8-0.1,7.1-0.5l3-0.5v18.7c0,1.5-0.6,2.9-1.7,3.9c-1.5,1.1-3.4,1.4-5.2,0.9C48.3,190.8,31.2,178,19.1,161
	C6.5,144.1-0.3,123.5,0,102.4c-0.1-17.6,4.5-34.8,13.4-50C22.2,37.2,34.8,24.6,50,15.9C65.2,7,82.4,2.3,100,2.4
	c17.6-0.1,34.8,4.5,50,13.4c15.2,8.7,27.8,21.4,36.6,36.6C195.5,67.6,200.1,84.9,200,102.4z"/>
</svg>
