<?xml version="1.0" encoding="utf-8"?>
<!-- Generator: Adobe Illustrator 27.0.0, SVG Export Plug-In . SVG Version: 6.00 Build 0)  -->
<svg version="1.1" id="图层_1" xmlns="http://www.w3.org/2000/svg" xmlns:xlink="http://www.w3.org/1999/xlink" x="0px" y="0px"
	 viewBox="0 0 39.8 41.8" style="enable-background:new 0 0 39.8 41.8;" xml:space="preserve">
<style type="text/css">
	.st0{fill:url(#SVGID_1_);}
	.st1{fill:url(#SVGID_00000112595864294260568290000010330853183454999939_);}
	.st2{fill:url(#SVGID_00000065775775098333143180000000827347998134601638_);}
	.st3{fill:#0076D0;}
	.st4{fill:url(#SVGID_00000179643242852775809760000012248556854459082937_);}
	.st5{fill:url(#SVGID_00000028303773219588970140000012922805014517653133_);}
	.st6{fill:url(#SVGID_00000067233268032794902350000012426394117146550164_);}
</style>
<g>
	
		<linearGradient id="SVGID_1_" gradientUnits="userSpaceOnUse" x1="15.6862" y1="6.548" x2="42.1862" y2="23.548" gradientTransform="matrix(1 0 0 -1 0 43.625)">
		<stop  offset="0" style="stop-color:#1859BF"/>
		<stop  offset="1" style="stop-color:#2FCCF7"/>
	</linearGradient>
	<path class="st0" d="M39.8,20.9c0-0.4,0-0.7,0-1.1c-0.1-1.5-0.5-3-1.1-4.4c0.4,1.1,0.4,2.4,0,3.5c-0.4,1.1-1.2,2.1-2.2,2.7
		c-0.1,0.1-0.2,0.1-0.3,0.2l-4.1,2.3L26,34.8c3.7,0,7.2-1.5,9.8-4.1C38.4,28.1,39.8,24.5,39.8,20.9z"/>
	
		<linearGradient id="SVGID_00000089553800261991877090000004656752032966324375_" gradientUnits="userSpaceOnUse" x1="33.2458" y1="25.4327" x2="6.4485" y2="43.5088" gradientTransform="matrix(1 0 0 -1 0 43.625)">
		<stop  offset="0" style="stop-color:#1859BF"/>
		<stop  offset="1" style="stop-color:#2FCCF7"/>
	</linearGradient>
	<path style="fill:url(#SVGID_00000089553800261991877090000004656752032966324375_);" d="M32.1,17.6L26,7l-0.1-0.1
		c-0.9-1.6-2.1-3-3.6-4.1c-1.5-1.1-3.1-1.9-4.9-2.4C15.7,0,13.8-0.1,12,0.1C10.2,0.4,8.5,1,6.9,1.9C6.6,2.1,6.3,2.3,6,2.5
		C4.7,3.4,3.6,4.4,2.7,5.6c0.8-0.9,1.9-1.5,3-1.8c1.2-0.2,2.4,0,3.5,0.5c0.1,0.1,0.2,0.1,0.3,0.2L13.7,7l1.7,1l14.9,8.6
		c1.1,0.7,2,1.4,2.5,2.2L32.1,17.6z"/>
	
		<linearGradient id="SVGID_00000013892924479957642290000000362378989114045838_" gradientUnits="userSpaceOnUse" x1="37.787" y1="23.06" x2="20.8707" y2="36.3932" gradientTransform="matrix(1 0 0 -1 0 43.625)">
		<stop  offset="0" style="stop-color:#8E5AE9"/>
		<stop  offset="1" style="stop-color:#D2CEFE"/>
	</linearGradient>
	<path style="fill:url(#SVGID_00000013892924479957642290000000362378989114045838_);" d="M38.7,15.4c-0.2-0.4-0.4-0.8-0.6-1.2
		c-1.2-2.2-3-4-5.1-5.3c-2.1-1.3-4.6-2-7.1-2l6.1,10.6l0.7,1.2l0.1,0.1c0,0,0,0,0,0.1c0.1,0.2,0.2,0.4,0.3,0.6
		c0.3,0.9,0.3,1.8,0,2.7c-0.1,0.2-0.2,0.4-0.3,0.5l-0.1,0.2l-0.6,1.1l4.1-2.3c0.1-0.1,0.2-0.1,0.3-0.2c1-0.6,1.8-1.6,2.2-2.7
		C39.1,17.8,39.1,16.5,38.7,15.4L38.7,15.4z"/>
	<path class="st3" d="M32.7,18.7l-0.6-1.1L26,7H12.5l0.2,0c0.4,0,0.7,0.1,1.1,0.2c0.6,0.2,1.2,0.4,1.7,0.8l14.9,8.6
		c1.1,0.7,2,1.4,2.5,2.2L32.7,18.7z"/>
	
		<linearGradient id="SVGID_00000138548824501666743070000011337319748152168124_" gradientUnits="userSpaceOnUse" x1="0.4105" y1="16.5791" x2="13.2066" y2="37.0578" gradientTransform="matrix(1 0 0 -1 0 43.625)">
		<stop  offset="0" style="stop-color:#D2CEFE"/>
		<stop  offset="1" style="stop-color:#8E5AE9"/>
	</linearGradient>
	<path style="fill:url(#SVGID_00000138548824501666743070000011337319748152168124_);" d="M13.7,7L9.5,4.6C9.4,4.5,9.3,4.4,9.2,4.4
		C8.2,3.8,7,3.6,5.8,3.9c-1.2,0.2-2.3,0.8-3,1.8C2.5,6,2.2,6.3,2,6.7c-1.3,2.1-2,4.6-2,7.1c0,2.5,0.6,5,1.9,7.1L8,31.4L8.4,32
		C8.2,31.4,8,30.6,8,29.9c0-0.1,0-0.3,0-0.4V12.3c0-0.3,0-0.7,0.1-1c0.1-0.8,0.3-1.5,0.6-2.2c0.8-1.5,2.2-2.3,4-2.1
		c0.4,0,0.7,0.1,1.1,0.2c0.6,0.2,1.2,0.4,1.7,0.8L13.7,7z"/>
	
		<linearGradient id="SVGID_00000005264003467420410290000006065249457929827510_" gradientUnits="userSpaceOnUse" x1="5.0612" y1="33.2314" x2="6.5612" y2="-0.2686" gradientTransform="matrix(1 0 0 -1 0 43.625)">
		<stop  offset="0" style="stop-color:#1859BF"/>
		<stop  offset="1" style="stop-color:#2FCCF7"/>
	</linearGradient>
	<path style="fill:url(#SVGID_00000005264003467420410290000006065249457929827510_);" d="M8.7,39.1C8.3,38.4,8,37.5,8,36.7
		c0-0.1,0-0.2,0-0.3l0-5L1.9,20.9l0,0.1c-0.9,1.6-1.5,3.3-1.7,5.1S0,29.8,0.5,31.5C1,33.3,1.8,35,2.9,36.4C4,37.8,5.4,39.1,7,40
		c0.3,0.2,0.6,0.3,1,0.5c1.4,0.6,2.8,1.1,4.3,1.2c-0.8-0.1-1.5-0.5-2.1-0.9C9.6,40.4,9.1,39.8,8.7,39.1z"/>
	<path class="st3" d="M8.1,11.3c0.1-0.7,0.3-1.5,0.6-2.1L1.9,20.9L1.9,21L8,31.4L8.4,32C8.2,31.4,8,30.6,8,29.9c0-0.1,0-0.3,0-0.4
		V12.3C8,11.9,8,11.6,8.1,11.3z"/>
	
		<linearGradient id="SVGID_00000125592968513055303530000003795190075261652405_" gradientUnits="userSpaceOnUse" x1="32.8314" y1="10.9862" x2="7.9932" y2="11.8543" gradientTransform="matrix(1 0 0 -1 0 43.625)">
		<stop  offset="0" style="stop-color:#D2CEFE"/>
		<stop  offset="1" style="stop-color:#8E5AE9"/>
	</linearGradient>
	<path style="fill:url(#SVGID_00000125592968513055303530000003795190075261652405_);" d="M30.9,24.9c-0.2,0.1-0.3,0.2-0.5,0.3
		l-14.9,8.6c-0.4,0.2-0.8,0.4-1.3,0.6c-0.6,0.2-1.2,0.4-1.8,0.4c-1.9,0.1-3.4-0.9-4-2.8C8,30.8,8,30,8,30l0,6.3c0,0.1,0,0.2,0,0.3
		c0,1.2,0.5,2.4,1.3,3.3c0.8,0.9,1.9,1.5,3,1.8c0.4,0.1,0.9,0.1,1.3,0.1c2.5,0.1,5-0.6,7.1-1.8c2.2-1.2,4-3,5.2-5.2l0,0l6.1-10.6
		l0.8-1.3l0,0C32.4,23.7,31.7,24.4,30.9,24.9z"/>
	<g>
		<path class="st3" d="M30.9,24.9c-0.2,0.1-0.3,0.2-0.5,0.3l-14.9,8.6c-0.4,0.2-0.8,0.4-1.3,0.6c-0.5,0.2-1.1,0.3-1.6,0.4H26
			L32.8,23l0.1-0.2C32.4,23.7,31.7,24.4,30.9,24.9z"/>
	</g>
</g>
</svg>
