<?xml version="1.0" standalone="no"?><!DOCTYPE svg PUBLIC "-//W3C//DTD SVG 1.1//EN" "http://www.w3.org/Graphics/SVG/1.1/DTD/svg11.dtd"><svg t="1696759504317" class="icon" viewBox="0 0 1024 1024" version="1.1" xmlns="http://www.w3.org/2000/svg" p-id="9671" xmlns:xlink="http://www.w3.org/1999/xlink" width="200" height="200"><path d="M512 1.11A446.46 446.46 0 0 0 64.36 448.75c0 248.14 447.64 574.14 447.64 574.14s447.64-326 447.64-574.14A446.46 446.46 0 0 0 512 1.11zM390.36 672.57h-68.12V263.85h68.12z m248.15-155.7H536.33v155.7h-68.12V263.85h170.3c97.31 0 146 43.79 146 126.51s-48.69 126.51-146 126.51z" p-id="9672" fill="#2c2c2c"></path><path d="M696.89 336.84c-14.59-9.73-34-14.6-63.25-14.6h-97.31v136.24h97.31c29.2 0 48.66-4.87 63.25-14.6s19.47-29.19 19.47-53.52c4.86-24.36-4.87-38.93-19.47-53.52z" p-id="9673" fill="#2c2c2c"></path></svg>