<?xml version="1.0" encoding="utf-8"?>
<!-- Generator: Adobe Illustrator 27.0.0, SVG Export Plug-In . SVG Version: 6.00 Build 0)  -->
<svg version="1.1" id="图层_1" xmlns="http://www.w3.org/2000/svg" xmlns:xlink="http://www.w3.org/1999/xlink" x="0px" y="0px"
	 viewBox="0 0 72 72" style="enable-background:new 0 0 72 72;" xml:space="preserve">
<style type="text/css">
	.st0{fill:#FFCE00;}
</style>
<g>
	<path class="st0" d="M52,8c0-4.4,3.6-8,8-8h4c4.4,0,8,3.6,8,8v56c0,4.4-3.6,8-8,8h-4c-4.4,0-8-3.6-8-8V8z"/>
	<path class="st0" d="M26,26c0-4.4,3.6-8,8-8h4c4.4,0,8,3.6,8,8v20c0,4.4-3.6,8-8,8h-4c-4.4,0-8-3.6-8-8V26z"/>
	<path class="st0" d="M0,8c0-4.4,3.6-8,8-8h4c4.4,0,8,3.6,8,8v56c0,4.4-3.6,8-8,8H8c-4.4,0-8-3.6-8-8V8z"/>
</g>
</svg>
