<?xml version="1.0" encoding="utf-8"?>
<!-- Generator: Adobe Illustrator 27.0.0, SVG Export Plug-In . SVG Version: 6.00 Build 0)  -->
<svg version="1.1" id="图层_1" xmlns="http://www.w3.org/2000/svg" xmlns:xlink="http://www.w3.org/1999/xlink" x="0px" y="0px"
	 viewBox="0 0 150 150" style="enable-background:new 0 0 150 150;" xml:space="preserve">
<style type="text/css">
	.st0{fill:#FFFFFF;}
	.st1{fill-rule:evenodd;clip-rule:evenodd;}
</style>
<path class="st0" d="M75,0L75,0c41.4,0,75,33.6,75,75l0,0c0,41.4-33.6,75-75,75l0,0c-41.4,0-75-33.6-75-75l0,0C0,33.6,33.6,0,75,0z"
	/>
<g>
	<g>
		<path class="st1" d="M27.9,26.3c4.7,3.8,6.4,3.5,15.2,2.9l82.6-5c1.8,0,0.3-1.7-0.3-2l-13.7-9.9c-2.6-2-6.1-4.4-12.8-3.8l-80,5.8
			c-2.9,0.3-3.5,1.7-2.3,2.9L27.9,26.3z M32.8,45.5v86.9c0,4.7,2.3,6.4,7.6,6.1l90.8-5.3c5.3-0.3,5.8-3.5,5.8-7.3V39.7
			c0-3.8-1.5-5.8-4.7-5.5l-94.9,5.5C34,40,32.8,41.8,32.8,45.5z M122.4,50.2c0.6,2.6,0,5.3-2.6,5.5l-4.4,0.9v64.2
			c-3.8,2-7.3,3.2-10.2,3.2c-4.7,0-5.8-1.5-9.3-5.8L67.3,73.3v43.5l9.1,2c0,0,0,5.2-7.3,5.2l-20.1,1.2c-0.6-1.2,0-4.1,2-4.7l5.3-1.5
			V61.6L48.9,61c-0.6-2.6,0.9-6.4,5-6.7l21.6-1.5l29.8,45.5V58.1l-7.6-0.9c-0.6-3.2,1.7-5.5,4.7-5.8L122.4,50.2z M12.1,6.5l83.2-6.1
			c10.2-0.9,12.8-0.3,19.3,4.4l26.6,18.7c4.4,3.2,5.8,4.1,5.8,7.6v102.4c0,6.4-2.3,10.2-10.5,10.8l-96.6,5.8
			c-6.1,0.3-9.1-0.6-12.3-4.7L8,119.9c-3.5-4.7-5-8.2-5-12.3v-91C3.1,11.4,5.4,7,12.1,6.5z"/>
	</g>
</g>
</svg>
