<?xml version="1.0" encoding="UTF-8"?>
<svg id="_图层_2" data-name="图层 2" xmlns="http://www.w3.org/2000/svg" viewBox="0 0 100 98.85">
  <defs>
    <style>
      .cls-1 {
        fill: #ed00eb;
      }
    </style>
  </defs>
  <g id="_图层_1-2" data-name="图层 1" focusable="false">
    <path class="cls-1" d="M99.45,45.46l-8.8-31.1c-.35-1.22-1-2.33-1.91-3.22-.91-.89-2.03-1.54-3.26-1.89L54.01,.55c-2.63-.73-5.41-.73-8.03,0L14.53,9.25c-1.23,.34-2.36,.99-3.26,1.89-.91,.9-1.56,2.01-1.91,3.23L.55,45.46c-.74,2.6-.74,5.34,0,7.94l8.8,31.1c.35,1.22,1,2.33,1.91,3.23s2.03,1.54,3.27,1.88l31.46,8.7c2.63,.73,5.41,.73,8.03,0l31.46-8.7c1.23-.34,2.36-.99,3.26-1.89,.91-.89,1.56-2.01,1.91-3.22l8.8-31.1c.74-2.6,.74-5.34,0-7.94h0Zm-8.15,7.44l-37.78,37.35c-.46,.46-1.01,.82-1.61,1.07s-1.25,.37-1.9,.37-1.3-.13-1.9-.37-1.15-.61-1.61-1.07L8.7,52.9c-.46-.46-.83-1-1.08-1.59s-.38-1.24-.38-1.88,.13-1.28,.38-1.88c.25-.6,.62-1.14,1.08-1.59L46.49,8.6c.46-.46,1.01-.82,1.61-1.06,.6-.25,1.25-.37,1.9-.37s1.3,.13,1.9,.37c.6,.25,1.15,.61,1.61,1.07l37.78,37.35c.46,.46,.83,1,1.08,1.59,.25,.6,.38,1.24,.38,1.88s-.13,1.28-.38,1.88-.62,1.14-1.08,1.59h0Z"/>
  </g>
</svg>