<svg version="1.1" viewBox="0 0 512 512" xmlns="http://www.w3.org/2000/svg">
 <rect fill="#5d78ff" x="0" y="0" width="512" height="512"/>
 <path fill="#fff" d="m322.51 88.99c0.8332-0.01125 1.6698-0.0084 2.5098 0.0078v0.0293c9.09 0.03 17.478 1.8806 25.188 5.5605 5.16 2.89 9.58 6.47 13.25 10.75 6.1104 7.52 10.462 16.419 13.062 26.689 2.26 9.13 3.43 18.96 3.5 29.5 0.13 7.02 0.0294 13.871-0.31055 20.561-0.01 0.18 0.41 0.0591 1.25-0.38086 5.1504-2.65 10.171-5.5494 15.061-8.6894 4.6496-1.95 8.8794-2.0194 12.689-0.18945 1.89 0.8 2.8509 3.14 2.8809 7 0 4.92-0.83 9.42-2.5 13.5-2.37 6.12-6.29 11.54-11.75 16.25-5.1 4.38-11.02 7.88-17.75 10.5-0.81996 0.31-1.2606 0.78946-1.3106 1.4394-0.66 8.24-1.4694 16.431-2.4394 24.561-1.93 18.4-5.0306 36.049-9.3106 52.939-4.73 15.92-10.539 31.281-17.439 46.061-6.27 13.62-14.52 25.95-24.75 37-8.63 9.06-18.081 16.519-28.371 22.369-12.6 7.1604-26.159 12.181-40.689 15.061-14.45 2.97-29.29 4.06-44.5 3.25-15.17-0.57-29.319-4.2606-42.439-11.061-7.07-4-13.15-8.84-18.25-14.5-7.8901-9.73-12.841-20.941-14.881-33.631-1.06-5.56-1.6194-10.909-1.6894-16.059-0.52-5.08-0.19-10.41 1-16 2.8296-14.56 6.3094-29.501 10.439-44.811 5.19-20.62 10.28-40.95 15.25-61 2.32-9.66 4.2606-18.639 5.8106-26.939 2.63-13.06 3.38-25.39 2.25-37-0.41-7.27-2.5206-13.751-6.3106-19.441-2.8695-3.23-6.2695-4.9186-10.189-5.0586-4.67-0.2-8.83 1.05-12.5 3.75-6.23 4.53-12.48 9.03-18.75 13.5-3.5996 2.61-7.4075 4.0486-11.438 4.3086-2.87 0.23-4.9909-0.36-6.3809-1.75-1.26-1.28-1.9895-3.3786-2.1895-6.3086-0.7404-11.77 2.3606-22.171 9.3106-31.191 3.98-5.0001 9.0189-9.4589 15.129-13.379 8.19-5.6099 17.231-9.5711 27.121-11.871 8.33-1.94 17.308-2.7086 26.938-2.3086 9.65 0.7 18.289 3.6286 25.939 8.8086 5.39 4.13 9.89 9.05 13.5 14.75 8.6904 13.62 12.621 28.851 11.811 45.691-0.28 16.16-2.45 32.07-6.5 47.75-5.1 21.68-10.168 43.369-15.188 65.059-2.88 12.68-5.2406 24.751-7.0606 36.191-1.4 11.03-1.65 22.11-0.75 33.25 0.83 6.97 4.1006 12.699 9.8106 17.189 3.2396 2.35 6.9575 4.0406 11.188 5.0606 3.7504 0.78994 8.0225 1.2694 12.812 1.4394 14.94-0.24 28.498-4.6295 40.688-13.189 6.01-4.17 11.613-8.9814 16.812-14.441 7.88-8.58 14.499-18.039 19.879-28.379 8.71-17.07 15.091-34.941 19.121-53.621 2.2-9.41 4.1489-19.82 5.8789-31.25-14.48-0.68-27.929-4.3892-40.369-11.119-5.19-3.12-10.03-7.04-14.5-11.75-5.03-5.5-8.95-11.42-11.75-17.75-4.43-10.15-6.7906-21.048-7.0606-32.688-0.5-8.83 0.52055-17.221 3.0606-25.191 3.53-10.1 9.4889-18.729 17.879-25.879 6.2-5.0895 13.301-8.6495 21.311-10.689 5.495-1.4262 11.158-2.1791 16.99-2.2578l-2e-3 -2e-3zm5.3555 38.5c-2.6076 0.0548-4.5743 1.1285-5.9043 3.2285-0.45399 0.7989-0.84522 1.6278-1.1738 2.4844-2e-3 6e-3 -6e-3 0.0116-8e-3 0.0176v2e-3c-2e-3 4e-3 -2e-3 9e-3 -4e-3 0.0137-0.32427 0.8502-0.58587 1.7282-0.78711 2.6348-2e-3 9e-3 -6e-3 0.0166-8e-3 0.0254-2.7e-4 1e-3 2.8e-4 3e-3 0 4e-3 -1e-3 5e-3 -8.4e-4 0.0106-2e-3 0.0156-0.19968 0.9096-0.33964 1.8484-0.41601 2.8144-4.8e-4 6e-3 -1e-3 0.0116-2e-3 0.0176-1.5e-4 2e-3 1.6e-4 4e-3 0 6e-3v2e-3c-0.0763 0.9792-0.089 1.9866-0.0391 3.0234 5e-3 2.165 0.10523 4.2105 0.30273 6.1367s0.49172 3.7338 0.88672 5.4238c0.185 1.0475 0.40618 2.0737 0.66211 3.0781 0.25594 1.0044 0.54813 1.986 0.875 2.9473 0.32684 0.9612 0.68811 1.9022 1.0859 2.8203s0.83208 1.8144 1.3008 2.6894 0.97202 1.7286 1.5117 2.5606 1.1159 1.6409 1.7266 2.4297c0.6106 0.7887 1.2559 1.5571 1.9375 2.3027 0.6816 0.7457 1.3979 1.4694 2.1504 2.1719 1.42 1.39 2.8809 2.6372 4.3809 3.7422s3.0391 2.0667 4.6191 2.8867c0.41-8.36 0.68055-16.759 0.81055-25.189 0-1.695-0.0469-3.3521-0.14062-4.9707-0.0937-1.6186-0.23438-3.1983-0.42188-4.7402s-0.42189-3.045-0.70312-4.5098c-0.28125-1.4649-0.60938-2.8918-0.98438-4.2793-0.2-0.765-0.51315-1.5803-0.93945-2.4453s-0.9661-1.7791-1.6211-2.7441c-1.4175-2.13-3.261-3.5171-5.5293-4.1621h-2e-3c-0.7556-0.2147-1.5589-0.34848-2.4082-0.39844-0.3987-0.0338-0.78373-0.0469-1.1562-0.0391z"/>
</svg>
