<?xml version="1.0" encoding="utf-8"?>
<!-- Generator: Adobe Illustrator 27.0.0, SVG Export Plug-In . SVG Version: 6.00 Build 0)  -->
<svg version="1.1" id="图层_1" xmlns="http://www.w3.org/2000/svg" xmlns:xlink="http://www.w3.org/1999/xlink" x="0px" y="0px"
	 viewBox="0 0 50.1 53.3" style="enable-background:new 0 0 50.1 53.3;" xml:space="preserve">
<style type="text/css">
	.st0{fill:#FF6600;}
</style>
<path class="st0" d="M31.2,9l8.7-3.9c0.6-0.3,0.9-0.1,0.8,0.6l-1,9.6c0,0.3,0.2,0.6,0.5,0.7l9.4,2.1c0.3,0.1,0.4,0.3,0.4,0.6
	c0,0.1-0.1,0.2-0.1,0.2l-6.4,7.2c-0.2,0.2-0.2,0.6,0,0.8l6.5,7.5c0.2,0.2,0.2,0.5-0.1,0.7c-0.1,0.1-0.1,0.1-0.2,0.1l-9.4,2
	c-0.3,0.1-0.5,0.3-0.5,0.6l0.9,9.7c0.1,0.7-0.2,0.9-0.8,0.6l-8.6-4c-0.5-0.2-1,0-1.2,0.4l-4.6,8.3c-0.3,0.5-0.6,0.5-0.9,0l-4.8-8.4
	c-0.2-0.4-0.7-0.6-1.2-0.4l-8.4,3.8c-0.3,0.2-0.7,0-0.9-0.4c0-0.1-0.1-0.2-0.1-0.4l0.9-9.3c0-0.3-0.2-0.5-0.5-0.6l-9.4-2.4
	c-0.2,0-0.3-0.2-0.2-0.4c0,0,0-0.1,0.1-0.1l6.3-7.4c0.2-0.2,0.2-0.5,0-0.8l-6.3-7.4c-0.1-0.1-0.1-0.4,0-0.5c0,0,0.1-0.1,0.1-0.1
	l9.2-2.1c0.5-0.1,0.8-0.5,0.8-1L9.3,5.4c0-0.2,0.1-0.3,0.3-0.4c0.1,0,0.1,0,0.2,0l8.7,3.8c0.4,0.2,0.9,0,1.2-0.4l4.8-8.2
	C24.7,0,25-0.1,25.2,0.1c0.1,0,0.1,0.1,0.2,0.2l5.1,8.6C30.6,9.1,30.9,9.2,31.2,9z M33.4,19.9c0-0.2-0.1-0.3-0.3-0.3l0,0H16.8
	c-0.2,0-0.3,0.1-0.3,0.3v4.4c0,0.2,0.1,0.3,0.3,0.3h16.4c0.2,0,0.3-0.1,0.3-0.3l0,0V19.9z M33.4,29c0-0.2-0.2-0.4-0.4-0.4
	c0,0,0,0,0,0l-16.1,0c-0.2,0-0.4,0.2-0.4,0.4l0,4.1c0,0.2,0.2,0.4,0.4,0.4c0,0,0,0,0,0l16.1,0c0.2,0,0.4-0.2,0.4-0.4L33.4,29z"/>
</svg>
