<?xml version="1.0" standalone="no"?><!DOCTYPE svg PUBLIC "-//W3C//DTD SVG 1.1//EN" "http://www.w3.org/Graphics/SVG/1.1/DTD/svg11.dtd"><svg t="1682924795875" class="icon" viewBox="0 0 1024 1024" version="1.1" xmlns="http://www.w3.org/2000/svg" p-id="3756" xmlns:xlink="http://www.w3.org/1999/xlink" width="200" height="200"><path d="M540.95908203 555.43730469s0-62.74248047-30.56748047-65.96191407c-30.56748047-3.21943359-125.48583984 0-125.48583984 1e-8v-193.05527344h141.57246094s-1.60839844-64.35263672-28.95908203-64.35263672h-230.05810547l38.61035156-102.96210938s-57.91728516 3.21943359-78.83085938 40.21962891-86.87460938 222.01523438-86.87460937 222.01523438 22.52373047 9.65302734 59.52480469-17.69589844c37.00283203-27.34804688 49.87177734-75.61494141 49.87177734-75.61494141l67.56943359-3.21943359 1.60839844 196.27382812s-117.44033203-1.60839844-141.57246094 0c-24.13212891 1.60839844-37.00283203 65.96191406-37.00283203 65.96191407h178.57792969s-16.09013672 109.39746094-61.13408203 188.23007812c-46.65673828 78.83085938-133.53134766 141.57246094-133.53134766 141.57246094s62.74248047 25.74052734 123.87919922-9.65302735c61.13408203-37.00283203 106.18154297-196.27382812 106.18154297-196.27382812l143.184375 178.57792969s12.86982422-85.26533203-1.60839844-109.39746094c-16.09013672-24.13212891-99.74707031-120.65888672-99.74707031-120.65888672l-37.00283203 32.17412109 25.74052734-106.18154297h156.0515625zM577.96191406 227.24316406l-1.60839843 580.77509766h57.91728515l20.91357422 72.39550781 101.35634766-72.39550781h143.184375v-580.77509766h-321.75966797zM835.3671875 743.665625h-67.56943359l-85.26533203 65.96191406-19.30517579-65.96191406h-17.69589843v-450.46318359h189.83583984v450.46318359z" fill="#0084FF" p-id="3757"></path></svg>