<svg t="1683306340606" class="icon" viewBox="0 0 1024 1024" version="1.1" xmlns="http://www.w3.org/2000/svg" p-id="4221"
    width="200" height="200">
    <path
        d="M570.5984 837.3632c0 32.3904-26.2528 58.6368-58.5984 58.6368l0 0c-32.4096 0-58.6624-26.2528-58.6624-58.6368L453.3376 186.6368C453.3376 154.2528 479.5904 128 512 128l0 0c32.352 0 58.5984 26.2528 58.5984 58.6368L570.5984 837.3632 570.5984 837.3632zM570.5984 837.3632M837.3376 453.3696c32.4096 0 58.6624 26.2464 58.6624 58.6304l0 0c0 32.3776-26.2528 58.6304-58.6624 58.6304L186.6048 570.6304C154.2528 570.6304 128 544.3776 128 512l0 0c0-32.384 26.2528-58.6304 58.6048-58.6304L837.3376 453.3696 837.3376 453.3696zM837.3376 453.3696"
        fill="#272636" p-id="4222"></path>
</svg>